<svg xmlns="http://www.w3.org/2000/svg" viewBox="0 0 32 32" width="32" height="32">
  <defs>
    <linearGradient id="bg" x1="0" y1="0" x2="0" y2="1">
      <stop offset="0%" stop-color="#2a2a3a"/>
      <stop offset="100%" stop-color="#111118"/>
    </linearGradient>
    <linearGradient id="helmet" x1="0" y1="0" x2="0" y2="1">
      <stop offset="0%" stop-color="#4a4a5c"/>
      <stop offset="100%" stop-color="#22222e"/>
    </linearGradient>
    <radialGradient id="glow" cx="50%" cy="50%" r="50%">
      <stop offset="0%" stop-color="#ffffff"/>
      <stop offset="50%" stop-color="#80b4ff"/>
      <stop offset="100%" stop-color="#0070F3" stop-opacity="0"/>
    </radialGradient>
  </defs>
  <!-- Full-bleed circle background -->
  <circle cx="16" cy="16" r="16" fill="url(#bg)"/>
  <!-- Head dome — scaled to fill circle -->
  <path d="M16 4C10.5 4 6 8.2 6 13.5v3.5c0 2.8 1.3 5.3 3.2 6.8V26c0 .9.7 1.6 1.6 1.6h10.4c.9 0 1.6-.7 1.6-1.6v-2.2c1.9-1.5 3.2-4 3.2-6.8v-3.5C26 8.2 21.5 4 16 4z" fill="url(#helmet)"/>
  <!-- Visor -->
  <path d="M8.5 12.5c0-4.2 3.4-7.5 7.5-7.5s7.5 3.3 7.5 7.5v1.5c0 1.6-1.2 3-2.5 3.3H11c-1.3-.3-2.5-1.7-2.5-3.3v-1.5z" fill="#0a0a14" opacity="0.55"/>
  <!-- Left eye — 2x2 dot grid -->
  <rect x="10" y="12.5" width="2" height="2" rx="0.4" fill="url(#glow)"/>
  <rect x="12.5" y="12.5" width="2" height="2" rx="0.4" fill="url(#glow)"/>
  <rect x="10" y="15" width="2" height="2" rx="0.4" fill="url(#glow)"/>
  <rect x="12.5" y="15" width="2" height="2" rx="0.4" fill="url(#glow)"/>
  <!-- Right eye — 2x2 dot grid -->
  <rect x="17.5" y="12.5" width="2" height="2" rx="0.4" fill="url(#glow)"/>
  <rect x="20" y="12.5" width="2" height="2" rx="0.4" fill="url(#glow)"/>
  <rect x="17.5" y="15" width="2" height="2" rx="0.4" fill="url(#glow)"/>
  <rect x="20" y="15" width="2" height="2" rx="0.4" fill="url(#glow)"/>
  <!-- Subtle chin accent -->
  <path d="M13 23.5h6" stroke="#0070F3" stroke-width="0.7" opacity="0.35" stroke-linecap="round"/>
</svg>
