<svg xmlns="http://www.w3.org/2000/svg" viewBox="0 0 32 32" width="32" height="32">
  <defs>
    <linearGradient id="helmet" x1="0" y1="0" x2="0" y2="1">
      <stop offset="0%" stop-color="#4a4a5c"/>
      <stop offset="50%" stop-color="#2a2a36"/>
      <stop offset="100%" stop-color="#1a1a24"/>
    </linearGradient>
    <radialGradient id="glow" cx="50%" cy="50%" r="50%">
      <stop offset="0%" stop-color="#ffffff"/>
      <stop offset="50%" stop-color="#80b4ff"/>
      <stop offset="100%" stop-color="#0070F3" stop-opacity="0"/>
    </radialGradient>
  </defs>
  <!-- Head dome — fills full width, diamond chin, no neck -->
  <path d="M16 0C8 0 2 5.5 2 12.5v5c0 3 1.2 5.5 3 7.5L16 32l11-7c1.8-2 3-4.5 3-7.5v-5C30 5.5 24 0 16 0z" fill="url(#helmet)"/>
  <!-- Visor -->
  <path d="M5.5 11c0-5.8 4.7-10.5 10.5-10.5S26.5 5.2 26.5 11v2.5c0 2-1.5 3.8-3.2 4.2H8.7c-1.7-.4-3.2-2.2-3.2-4.2V11z" fill="#0a0a14" opacity="0.5"/>
  <!-- Left eye — 2x2 dot grid -->
  <rect x="7.5" y="11" width="2.8" height="2.8" rx="0.5" fill="url(#glow)"/>
  <rect x="11" y="11" width="2.8" height="2.8" rx="0.5" fill="url(#glow)"/>
  <rect x="7.5" y="14.5" width="2.8" height="2.8" rx="0.5" fill="url(#glow)"/>
  <rect x="11" y="14.5" width="2.8" height="2.8" rx="0.5" fill="url(#glow)"/>
  <!-- Right eye — 2x2 dot grid -->
  <rect x="18.2" y="11" width="2.8" height="2.8" rx="0.5" fill="url(#glow)"/>
  <rect x="21.7" y="11" width="2.8" height="2.8" rx="0.5" fill="url(#glow)"/>
  <rect x="18.2" y="14.5" width="2.8" height="2.8" rx="0.5" fill="url(#glow)"/>
  <rect x="21.7" y="14.5" width="2.8" height="2.8" rx="0.5" fill="url(#glow)"/>
</svg>
