<svg xmlns="http://www.w3.org/2000/svg" viewBox="0 0 32 32" width="32" height="32">
  <defs>
    <linearGradient id="helmet" x1="0" y1="0" x2="0" y2="1">
      <stop offset="0%" stop-color="#3a3a4a"/>
      <stop offset="100%" stop-color="#1a1a24"/>
    </linearGradient>
    <radialGradient id="eyeGlow" cx="50%" cy="50%" r="50%">
      <stop offset="0%" stop-color="#ffffff"/>
      <stop offset="60%" stop-color="#a0c4ff"/>
      <stop offset="100%" stop-color="#0070F3" stop-opacity="0"/>
    </radialGradient>
  </defs>
  <!-- Head shape -->
  <path d="M16 2C9.4 2 4 7 4 13v4c0 3.5 1.6 6.6 4 8.5V28c0 1.1.9 2 2 2h12c1.1 0 2-.9 2-2v-2.5c2.4-1.9 4-5 4-8.5v-4C28 7 22.6 2 16 2z" fill="url(#helmet)" stroke="#2a2a36" stroke-width="0.5"/>
  <!-- Visor -->
  <path d="M7 12c0-5 4-9 9-9s9 4 9 9v2c0 2-1.5 3.5-3 4H10c-1.5-.5-3-2-3-4v-2z" fill="#12121c" opacity="0.6"/>
  <!-- Left eye - dot matrix -->
  <rect x="9" y="13" width="1.5" height="1.5" rx="0.3" fill="url(#eyeGlow)"/>
  <rect x="11" y="13" width="1.5" height="1.5" rx="0.3" fill="url(#eyeGlow)"/>
  <rect x="9" y="15" width="1.5" height="1.5" rx="0.3" fill="url(#eyeGlow)"/>
  <rect x="11" y="15" width="1.5" height="1.5" rx="0.3" fill="url(#eyeGlow)"/>
  <rect x="13" y="14" width="1.5" height="1.5" rx="0.3" fill="url(#eyeGlow)" opacity="0.5"/>
  <!-- Right eye - dot matrix -->
  <rect x="19.5" y="13" width="1.5" height="1.5" rx="0.3" fill="url(#eyeGlow)"/>
  <rect x="21.5" y="13" width="1.5" height="1.5" rx="0.3" fill="url(#eyeGlow)"/>
  <rect x="19.5" y="15" width="1.5" height="1.5" rx="0.3" fill="url(#eyeGlow)"/>
  <rect x="21.5" y="15" width="1.5" height="1.5" rx="0.3" fill="url(#eyeGlow)"/>
  <rect x="17.5" y="14" width="1.5" height="1.5" rx="0.3" fill="url(#eyeGlow)" opacity="0.5"/>
  <!-- Chin line -->
  <path d="M12 24h8" stroke="#0070F3" stroke-width="0.8" opacity="0.4" stroke-linecap="round"/>
</svg>
